<svg version="1.1" xmlns="http://www.w3.org/2000/svg" viewBox="0 0 511.72027587890625 428.86328125" width="511.72027587890625" height="428.86328125">
  <!-- svg-source:excalidraw -->
  
  <defs>
    <style class="style-fonts">
      @font-face {
        font-family: "Virgil";
        src: url("https://excalidraw.com/Virgil.woff2");
      }
      @font-face {
        font-family: "Cascadia";
        src: url("https://excalidraw.com/Cascadia.woff2");
      }
    </style>
  </defs>
  <rect x="0" y="0" width="511.72027587890625" height="428.86328125" fill="#ffffff"></rect><g stroke-linecap="round" transform="translate(10 270.6875) rotate(0 160.67578125 74.087890625)"><path d="M32 0 M32 0 C125.77 -0.06, 219.21 -1.85, 289.35 0 M32 0 C99 -1, 164.28 -2.16, 289.35 0 M289.35 0 C310.67 -0.34, 319.81 10.73, 321.35 32 M289.35 0 C308.61 0.63, 319.89 10.47, 321.35 32 M321.35 32 C322.1 52.2, 322.09 70.08, 321.35 116.18 M321.35 32 C322.37 63.87, 322.4 96.87, 321.35 116.18 M321.35 116.18 C319.45 138.14, 311.72 148.21, 289.35 148.18 M321.35 116.18 C322.41 139.23, 311.17 147.22, 289.35 148.18 M289.35 148.18 C200.59 145.09, 111.51 146.79, 32 148.18 M289.35 148.18 C215.66 148.31, 142.44 148.66, 32 148.18 M32 148.18 C9.96 147.4, -1.25 136.38, 0 116.18 M32 148.18 C8.82 149.55, -1.56 136.55, 0 116.18 M0 116.18 C2.1 97.45, -0.74 76.18, 0 32 M0 116.18 C0.84 84.62, -0.08 51.26, 0 32 M0 32 C0.3 10.08, 10.37 -0.75, 32 0 M0 32 C-1.21 8.54, 9.31 -0.82, 32 0" stroke="#000000" stroke-width="1" fill="none"></path></g><g stroke-linecap="round" transform="translate(66.17578125 309.390625) rotate(0 98.32421875 31.439453125)"><path d="M15.72 0 M15.72 0 C76.4 -1.05, 138.82 1.9, 180.93 0 M15.72 0 C67.75 0.69, 120.23 1.42, 180.93 0 M180.93 0 C191.75 1.55, 196.38 6.48, 196.65 15.72 M180.93 0 C193.69 1.6, 197.17 5.04, 196.65 15.72 M196.65 15.72 C198.28 26.79, 195.18 36.69, 196.65 47.16 M196.65 15.72 C195.99 27.23, 196 39.93, 196.65 47.16 M196.65 47.16 C195.53 57.09, 190.46 63.95, 180.93 62.88 M196.65 47.16 C196.51 56.86, 189.39 64.14, 180.93 62.88 M180.93 62.88 C140.68 60.57, 99.85 61.87, 15.72 62.88 M180.93 62.88 C130.61 62.81, 80.74 61.73, 15.72 62.88 M15.72 62.88 C3.33 63.11, -1.02 56.22, 0 47.16 M15.72 62.88 C7.53 60.87, -2.14 56.01, 0 47.16 M0 47.16 C-1.63 42.14, -0.28 35.85, 0 15.72 M0 47.16 C0.89 39.74, -0.71 34.67, 0 15.72 M0 15.72 C0.17 5.42, 3.67 1.4, 15.72 0 M0 15.72 C0.96 3.28, 4.26 2.29, 15.72 0" stroke="#000000" stroke-width="1" fill="none"></path></g><g transform="translate(118.56002807617188 328.330078125) rotate(0 45.939971923828125 12.5)"><text x="45.939971923828125" y="0" font-family="Virgil, Segoe UI Emoji" font-size="20px" fill="#000000" text-anchor="middle" style="white-space: pre;" direction="ltr" dominant-baseline="text-before-edge">Image AI</text></g><g transform="translate(146.58984375 276.359375) rotate(0 18.61998748779297 25)"><text x="0" y="0" font-family="Virgil, Segoe UI Emoji" font-size="20px" fill="#000000" text-anchor="start" style="white-space: pre;" direction="ltr" dominant-baseline="text-before-edge">API</text><text x="0" y="25" font-family="Virgil, Segoe UI Emoji" font-size="20px" fill="#000000" text-anchor="start" style="white-space: pre;" direction="ltr" dominant-baseline="text-before-edge"></text></g><g stroke-linecap="round" transform="translate(83.76171875 10) rotate(0 81.251953125 28.548828125)"><path d="M14.27 0 M14.27 0 C63.3 -1.62, 114.24 -0.62, 148.23 0 M14.27 0 C41.15 -1.56, 69.2 -1.52, 148.23 0 M148.23 0 C157.4 -0.79, 162.19 5.69, 162.5 14.27 M148.23 0 C159.77 2.06, 162.3 3.4, 162.5 14.27 M162.5 14.27 C163.25 25.87, 164.36 37.81, 162.5 42.82 M162.5 14.27 C163.32 21.79, 162.46 28.09, 162.5 42.82 M162.5 42.82 C162.29 53.24, 157.5 56.13, 148.23 57.1 M162.5 42.82 C160.95 50.22, 158.85 58.45, 148.23 57.1 M148.23 57.1 C112.55 58.46, 76.02 57.1, 14.27 57.1 M148.23 57.1 C110.09 58.17, 72.41 58.75, 14.27 57.1 M14.27 57.1 C3.83 58.98, 0.01 51.88, 0 42.82 M14.27 57.1 C6.8 59.21, -1.38 52.55, 0 42.82 M0 42.82 C0.56 34.72, -1.55 24.76, 0 14.27 M0 42.82 C-0.87 34.46, 0.6 27.56, 0 14.27 M0 14.27 C1.88 4.99, 6.43 0.64, 14.27 0 M0 14.27 C-1.91 4.76, 4.31 1, 14.27 0" stroke="#000000" stroke-width="1" fill="none"></path></g><g transform="translate(118.46370697021484 26.048828125) rotate(0 46.549964904785156 12.5)"><text x="46.549964904785156" y="0" font-family="Virgil, Segoe UI Emoji" font-size="20px" fill="#000000" text-anchor="middle" style="white-space: pre;" direction="ltr" dominant-baseline="text-before-edge">Any client</text></g><g mask="url(#mask-u4MC_i-GDwoD12_SVwvs7)" stroke-linecap="round"><g transform="translate(118.15967590657715 79.6015625) rotate(0 2.487809295132422 87.55868582054973)"><path d="M-0.88 -1.18 C-0.23 28.32, 2.85 146.86, 3.59 176.29 M0.86 0.82 C1.91 30.01, 5 145.12, 5.85 174.4" stroke="#000000" stroke-width="1" fill="none"></path></g><g transform="translate(118.15967590657715 79.6015625) rotate(0 2.487809295132422 87.55868582054973)"><path d="M-7.15 145.09 C-1.55 152.89, 0.05 163.41, 5.48 175.8 M-5.43 145.92 C-1.15 154.3, 1.16 162.77, 6.35 173.6" stroke="#000000" stroke-width="1" fill="none"></path></g><g transform="translate(118.15967590657715 79.6015625) rotate(0 2.487809295132422 87.55868582054973)"><path d="M13.36 144.51 C13.26 152.32, 9.15 163, 5.48 175.8 M15.09 145.34 C13.33 153.94, 9.61 162.59, 6.35 173.6" stroke="#000000" stroke-width="1" fill="none"></path></g></g><mask id="mask-u4MC_i-GDwoD12_SVwvs7"><rect x="0" y="0" fill="#fff" width="222.6010032090045" height="355.453125"></rect><rect x="65.82038014616978" y="142.52734375" fill="#000" width="109.11991882324219" height="50" opacity="1"></rect></mask><g transform="translate(65.82038014616978 142.52734375) rotate(0 54.82710505553979 24.632904570549726)"><text x="54.559959411621094" y="0" font-family="Virgil, Segoe UI Emoji" font-size="20px" fill="#000000" text-anchor="middle" style="white-space: pre;" direction="ltr" dominant-baseline="text-before-edge">Send base </text><text x="54.559959411621094" y="25" font-family="Virgil, Segoe UI Emoji" font-size="20px" fill="#000000" text-anchor="middle" style="white-space: pre;" direction="ltr" dominant-baseline="text-before-edge">64 image</text></g><g stroke-linecap="round"><g transform="translate(204.96785762169998 256.60546875) rotate(0 -3.215335072631774 -89.52523704096676)"><path d="M0.53 -0.15 C-0.5 -29.86, -4.96 -149.05, -5.97 -178.9 M-0.66 -1.27 C-1.87 -30.72, -6.05 -147.85, -6.96 -177.32" stroke="#000000" stroke-width="1" fill="none"></path></g><g transform="translate(204.96785762169998 256.60546875) rotate(0 -3.215335072631774 -89.52523704096676)"><path d="M4 -149.63 C0.97 -157.67, -3.2 -166.02, -6.98 -176.93 M3.68 -149.6 C-0.88 -160.12, -4.86 -171.74, -6.44 -176.77" stroke="#000000" stroke-width="1" fill="none"></path></g><g transform="translate(204.96785762169998 256.60546875) rotate(0 -3.215335072631774 -89.52523704096676)"><path d="M-16.51 -148.94 C-13.01 -157.29, -10.66 -165.86, -6.98 -176.93 M-16.83 -148.91 C-13.4 -159.61, -9.4 -171.5, -6.44 -176.77" stroke="#000000" stroke-width="1" fill="none"></path></g></g><mask></mask><g transform="translate(207.98046875 134.8828125) rotate(0 146.86990356445312 25)"><text x="0" y="0" font-family="Virgil, Segoe UI Emoji" font-size="20px" fill="#000000" text-anchor="start" style="white-space: pre;" direction="ltr" dominant-baseline="text-before-edge">Return an image  in base 64 </text><text x="0" y="25" font-family="Virgil, Segoe UI Emoji" font-size="20px" fill="#000000" text-anchor="start" style="white-space: pre;" direction="ltr" dominant-baseline="text-before-edge">with objects marked</text></g></svg>